<svg width="47" height="47" viewBox="0 0 47 47" fill="none" xmlns="http://www.w3.org/2000/svg">
<g clip-path="url(#clip0_95_872)">
<path d="M46.9259 0H0V46.9259H46.9259V0Z" fill="#F2CD00"/>
<path d="M5.34912 25.2599V24.9807H6.27635V16.567H5.34912V16.2733H8.67179V16.9691C8.79613 16.7984 9.38342 16.104 10.6188 16.104C12.4733 16.104 13.6333 17.5114 13.6333 19.6436C13.6333 21.7758 12.4124 23.3524 10.5725 23.3524C9.36754 23.3524 8.79479 22.6885 8.67179 22.5178V24.9807H9.56858V25.2599H5.34912ZM8.67179 21.3433C8.67179 22.3326 9.15062 22.7031 9.72334 22.7031C10.7286 22.7031 11.1757 21.5905 11.1757 19.7203C11.1757 17.85 10.7273 16.7521 9.73788 16.7521C9.15062 16.7521 8.67179 17.1542 8.67179 18.1582V21.342V21.3433Z" fill="#1D1D1B"/>
<path d="M21.1767 21.1884C21.0219 22.4713 20.0021 23.507 18.0551 23.507C15.7218 23.507 14.3145 22.0229 14.3145 19.859C14.3145 17.6951 15.7827 16.1025 18.0392 16.1025C20.1265 16.1025 21.301 17.4623 21.2851 19.4728H16.7403V19.7043C16.7403 21.482 17.2972 22.7491 18.9202 22.7491C19.94 22.7491 20.6675 22.1618 20.8209 21.1884H21.1767ZM18.936 19.1792C18.936 17.2321 18.6424 16.4279 17.9625 16.4279C17.2826 16.4279 16.8038 17.371 16.7416 19.1792H18.936Z" fill="#1D1D1B"/>
<path d="M26.8325 21.4823C26.8325 22.6106 25.9052 23.5074 24.5455 23.5074C22.8762 23.5074 22.1037 22.5803 22.1037 21.1887V16.5672H21.3459V16.2735H22.1037V14.9905L24.4846 14.2021V16.2735H26.6328V16.5672H24.4846V21.2351C24.4846 22.0855 24.7941 22.5644 25.5203 22.5644C26.1234 22.5644 26.5098 22.0696 26.5098 21.4823H26.8337H26.8325Z" fill="#1D1D1B"/>
<path d="M32.8151 18.7774C32.63 17.3859 31.9039 16.4746 30.5587 16.4746C29.7082 16.4746 29.2598 16.9071 29.2598 17.5103C29.2598 19.3647 33.294 18.3753 33.294 21.1887C33.294 22.4717 32.3205 23.5074 30.0639 23.5074C28.6725 23.5074 28.1473 23.0128 27.6063 23.0128C27.4516 23.0128 27.2968 23.1212 27.2968 23.4308H27.019V20.6954H27.2663C27.4833 22.1954 28.3325 23.1835 29.7702 23.1835C30.6207 23.1835 31.1155 22.7509 31.1155 22.1014C31.1155 20.2628 27.113 21.0353 27.113 18.4388C27.113 17.1862 28.0096 16.1201 30.2199 16.1201C31.4872 16.1201 32.0281 16.5526 32.507 16.5526C32.6618 16.5526 32.8007 16.46 32.8007 16.1664H33.0784V18.7788H32.8151V18.7774Z" fill="#1D1D1B"/>
<path d="M38.0161 26.7596V26.7253H38.1379V25.5361H38.0917C37.8893 25.5361 37.8099 25.6659 37.7794 25.8801H37.7437V25.4355H37.7754C37.7741 25.4819 37.7913 25.5044 37.8271 25.5044H38.7874C38.8232 25.5044 38.8416 25.4832 38.839 25.4355H38.8706V25.8801H38.835C38.8045 25.6644 38.7251 25.5361 38.5227 25.5361H38.4766V26.7253H38.5981V26.7596H38.0149H38.0161Z" fill="#1D1D1B"/>
<path d="M39.7911 26.7596V26.7253H39.9114V25.699C39.8149 26.0521 39.7145 26.4078 39.6192 26.7596H39.4035L39.0849 25.6909V26.5202C39.0849 26.6671 39.1363 26.7266 39.1973 26.7266H39.217V26.7611H38.9089V26.7266H38.9286C38.9896 26.7266 39.041 26.6671 39.041 26.5202V25.5402H38.9208V25.5044H39.377L39.6535 26.47L39.9194 25.5044H40.3585V25.5402H40.2383V26.7266H40.3585V26.7611H39.7911V26.7596Z" fill="#1D1D1B"/>
<path d="M21.6555 30.9474C21.6555 31.3335 21.4544 31.6431 21.1303 31.6431C20.8063 31.6431 20.6978 31.3958 20.6978 30.9633V27.7793C20.6978 26.1102 19.5695 25.2134 17.5286 25.2134C15.4876 25.2134 14.4533 26.1563 14.4533 27.2225C14.4533 27.8865 14.9638 28.3812 15.6437 28.3812C16.3857 28.3812 16.9426 27.9169 16.9426 27.2994C16.9426 26.6816 16.4479 26.3257 15.8765 26.3257C15.7681 26.3257 15.7218 26.2637 15.7218 26.2173C15.7218 25.9078 16.2469 25.5678 17.0048 25.5678C17.9161 25.5678 18.4426 26.0162 18.4426 26.8812C18.4426 29.7093 14.0842 28.1485 14.0842 30.8375C14.0842 31.9498 15.0273 32.6152 16.2178 32.6152C17.7164 32.6152 18.3513 31.5332 18.4743 31.3481C18.6754 32.1522 19.2931 32.6006 20.2362 32.6006C21.4728 32.6006 21.9359 31.7197 21.9359 30.9474H21.6581H21.6555ZM18.3473 30.6696C18.3473 31.3335 17.9452 31.7673 17.3579 31.7673C16.8633 31.7673 16.4307 31.3971 16.4307 30.655C16.4307 29.1087 17.5894 28.9698 18.3473 28.1975V30.6709V30.6696Z" fill="#1D1D1B"/>
<path d="M32.3973 26.6038C32.3973 26.0006 32.8457 25.5681 33.6961 25.5681C35.0414 25.5681 35.7675 26.4795 35.9528 27.8711H36.2159V25.2586H35.9382C35.9382 25.5522 35.7993 25.6449 35.6445 25.6449C35.1658 25.6449 34.6247 25.2124 33.3576 25.2124C31.1473 25.2124 30.2505 26.2784 30.2505 27.5311C30.2505 30.1275 34.2531 29.355 34.2531 31.1937C34.2531 31.843 33.7584 32.2755 32.9079 32.2755C31.4702 32.2755 30.621 31.2862 30.404 29.7875H30.1567V32.523H30.4345C30.4345 32.2135 30.5893 32.1049 30.744 32.1049C31.285 32.1049 31.81 32.5997 33.2016 32.5997C35.458 32.5997 36.4317 31.564 36.4317 30.281C36.4317 27.4676 32.3973 28.4569 32.3973 26.6025V26.6038Z" fill="#1D1D1B"/>
<path d="M13.0154 32.1523V24.7412V25.0204V23.3828L10.5882 24.1712V25.0204V24.7412V32.1523H9.64648V32.446H13.9122V32.1523H13.0154Z" fill="#1D1D1B"/>
<path d="M26.5401 25.1976C25.3194 25.1976 24.7162 25.8933 24.5932 26.0627V24.1712L22.2743 23.3828V30.8086C22.2743 31.38 22.1659 31.7662 22.0112 32.2768L21.8101 32.88H22.1342C22.412 31.9527 22.629 31.6737 22.9846 31.6737C23.7889 31.6737 24.1897 32.5705 25.7202 32.5705C28.0388 32.5705 29.5534 30.9475 29.5534 28.6908C29.5534 26.6195 28.425 25.1976 26.5389 25.1976H26.5401ZM25.6592 32.2146C25.0878 32.2146 24.5932 31.8443 24.5932 30.823V27.2531C24.5932 26.2479 25.0719 25.8615 25.6592 25.8615C26.6487 25.8615 27.0971 27.0666 27.0971 28.9222C27.0971 30.7781 26.6487 32.2146 25.6592 32.2146Z" fill="#1D1D1B"/>
<path d="M39.0279 16.2734V16.5367H39.2752C40.0941 16.5367 40.233 17.1861 39.9394 17.9123L38.7343 20.973L36.8336 16.5684H37.7609V16.2748H33.4023V16.5684H34.3138L36.95 22.1688L37.0372 22.3539L37.2688 22.8539L37.2754 22.8671L37.3692 23.0722L37.6855 23.748C37.4287 24.4782 37.0664 24.8724 36.5187 24.9742C36.0015 25.0708 35.7318 24.8855 35.6683 24.6304C35.6907 24.5788 35.7608 24.5339 35.8825 24.5112C36.4142 24.4121 36.7741 23.9836 36.6669 23.4055C36.5624 22.8434 36.1417 22.5285 35.4737 22.6528C34.8509 22.7693 34.4554 23.346 34.5769 23.9993C34.741 24.8802 35.4341 25.4743 36.5583 25.2653C37.2951 25.1277 37.7422 24.604 38.0492 23.6159L38.1972 23.2401L38.446 22.6145L40.2792 17.9903C40.6192 17.1094 41.0676 16.538 41.7171 16.538H41.918V16.2748H39.0279V16.2734Z" fill="#1D1D1B"/>
</g>
<defs>
<clipPath id="clip0_95_872">
<rect width="47" height="47" fill="white"/>
</clipPath>
</defs>
</svg>
