<svg width="55" height="55" viewBox="0 0 55 55" fill="none" xmlns="http://www.w3.org/2000/svg">
<g clip-path="url(#clip0_95_1226)">
<path d="M54.9133 0H0V54.9133H54.9133V0Z" fill="#F2CD00"/>
<path d="M6.25952 29.5596V29.2328H7.34458V19.387H6.25952V19.0433H10.1477V19.8575C10.2933 19.6579 10.9805 18.8452 12.4262 18.8452C14.5963 18.8452 15.9538 20.4921 15.9538 22.9873C15.9538 25.4824 14.5251 27.3274 12.372 27.3274C10.9619 27.3274 10.2917 26.5504 10.1477 26.3508V29.2328H11.1972V29.5596H6.25952ZM10.1477 24.9763C10.1477 26.134 10.7081 26.5675 11.3783 26.5675C12.5547 26.5675 13.0778 25.2656 13.0778 23.0771C13.0778 20.8884 12.5531 19.6037 11.3953 19.6037C10.7081 19.6037 10.1477 20.0742 10.1477 21.249V24.9748V24.9763Z" fill="#1D1D1B"/>
<path d="M24.7813 24.795C24.6002 26.2964 23.4068 27.5083 21.1283 27.5083C18.3979 27.5083 16.751 25.7716 16.751 23.2394C16.751 20.7071 18.4691 18.8435 21.1098 18.8435C23.5523 18.8435 24.9267 20.4347 24.9081 22.7874H19.5897V23.0583C19.5897 25.1386 20.2414 26.6214 22.1406 26.6214C23.334 26.6214 24.1853 25.9341 24.3649 24.795H24.7813ZM22.1592 22.4438C22.1592 20.1654 21.8156 19.2243 21.02 19.2243C20.2244 19.2243 19.664 20.3279 19.5913 22.4438H22.1592Z" fill="#1D1D1B"/>
<path d="M31.3999 25.1388C31.3999 26.459 30.3147 27.5085 28.7237 27.5085C26.7702 27.5085 25.8662 26.4236 25.8662 24.7951V19.3869H24.9795V19.0433H25.8662V17.5419L28.6524 16.6194V19.0433H31.1662V19.3869H28.6524V24.8494C28.6524 25.8446 29.0146 26.405 29.8643 26.405C30.5702 26.405 31.0223 25.826 31.0223 25.1388H31.4014H31.3999Z" fill="#1D1D1B"/>
<path d="M38.4008 21.9734C38.1842 20.3451 37.3344 19.2786 35.7603 19.2786C34.7651 19.2786 34.2403 19.7847 34.2403 20.4906C34.2403 22.6607 38.9612 21.5029 38.9612 24.7951C38.9612 26.2965 37.822 27.5085 35.1813 27.5085C33.5531 27.5085 32.9384 26.9297 32.3054 26.9297C32.1243 26.9297 31.9432 27.0566 31.9432 27.4188H31.6182V24.2178H31.9075C32.1615 25.9732 33.1552 27.1294 34.8376 27.1294C35.8328 27.1294 36.4118 26.6233 36.4118 25.8632C36.4118 23.7116 31.7282 24.6156 31.7282 21.5772C31.7282 20.1113 32.7774 18.8638 35.3639 18.8638C36.8469 18.8638 37.4799 19.3699 38.0403 19.3699C38.2214 19.3699 38.3839 19.2616 38.3839 18.9179H38.709V21.975H38.4008V21.9734Z" fill="#1D1D1B"/>
<path d="M44.4868 31.3146V31.2744H44.6293V29.8828H44.5753C44.3384 29.8828 44.2455 30.0347 44.2098 30.2854H44.168V29.7651H44.2051C44.2036 29.8194 44.2237 29.8457 44.2656 29.8457H45.3894C45.4312 29.8457 45.4528 29.8209 45.4498 29.7651H45.4867V30.2854H45.4451C45.4094 30.033 45.3165 29.8828 45.0797 29.8828H45.0257V31.2744H45.1679V31.3146H44.4853H44.4868Z" fill="#1D1D1B"/>
<path d="M46.5641 31.3146V31.2745H46.7048V30.0734C46.5919 30.4866 46.4744 30.9028 46.3629 31.3146H46.1105L45.7376 30.064V31.0344C45.7376 31.2063 45.7978 31.2759 45.8692 31.2759H45.8922V31.3163H45.5317V31.2759H45.5548C45.6261 31.2759 45.6863 31.2063 45.6863 31.0344V29.8876H45.5456V29.8457H46.0795L46.4031 30.9757L46.7142 29.8457H47.2281V29.8876H47.0873V31.2759H47.2281V31.3163H46.5641V31.3146Z" fill="#1D1D1B"/>
<path d="M25.3415 36.2154C25.3415 36.6673 25.1061 37.0295 24.7269 37.0295C24.3477 37.0295 24.2207 36.7401 24.2207 36.234V32.5081C24.2207 30.5548 22.9004 29.5054 20.5121 29.5054C18.1237 29.5054 16.9133 30.6088 16.9133 31.8565C16.9133 32.6334 17.5108 33.2124 18.3064 33.2124C19.1747 33.2124 19.8264 32.6691 19.8264 31.9464C19.8264 31.2235 19.2475 30.807 18.5788 30.807C18.4519 30.807 18.3977 30.7344 18.3977 30.6802C18.3977 30.318 19.0122 29.9201 19.8991 29.9201C20.9656 29.9201 21.5816 30.4448 21.5816 31.4571C21.5816 34.7665 16.4814 32.9401 16.4814 36.0868C16.4814 37.3885 17.5851 38.1671 18.9781 38.1671C20.7319 38.1671 21.4748 36.9009 21.6188 36.6844C21.8541 37.6253 22.5769 38.15 23.6805 38.15C25.1277 38.15 25.6695 37.1192 25.6695 36.2154H25.3445H25.3415ZM21.4702 35.8903C21.4702 36.6673 20.9996 37.1749 20.3124 37.1749C19.7335 37.1749 19.2274 36.7416 19.2274 35.8732C19.2274 34.0637 20.5833 33.9012 21.4702 32.9974V35.8918V35.8903Z" fill="#1D1D1B"/>
<path d="M37.9117 31.1319C37.9117 30.426 38.4364 29.9199 39.4316 29.9199C41.0058 29.9199 41.8556 30.9864 42.0724 32.6149H42.3803V29.5577H42.0553C42.0553 29.9013 41.8928 30.0098 41.7117 30.0098C41.1515 30.0098 40.5183 29.5037 39.0355 29.5037C36.449 29.5037 35.3995 30.7511 35.3995 32.217C35.3995 35.2554 40.0835 34.3513 40.0835 36.503C40.0835 37.2629 39.5045 37.769 38.5093 37.769C36.8268 37.769 35.8331 36.6113 35.5792 34.8575H35.2898V38.0586H35.6148C35.6148 37.6964 35.7959 37.5693 35.977 37.5693C36.61 37.5693 37.2245 38.1483 38.8529 38.1483C41.4934 38.1483 42.6328 36.9363 42.6328 35.435C42.6328 32.1427 37.9117 33.3004 37.9117 31.1304V31.1319Z" fill="#1D1D1B"/>
<path d="M15.231 37.6252V28.9526V29.2794V27.363L12.3906 28.2856V29.2794V28.9526V37.6252H11.2886V37.9689H16.2804V37.6252H15.231Z" fill="#1D1D1B"/>
<path d="M31.0576 29.4867C29.6291 29.4867 28.9233 30.3008 28.7794 30.499V28.2856L26.0658 27.363V36.0528C26.0658 36.7215 25.9389 37.1734 25.7578 37.7709L25.5225 38.4768H25.9018C26.2268 37.3916 26.4808 37.0651 26.897 37.0651C27.8382 37.0651 28.3071 38.1145 30.0981 38.1145C32.8114 38.1145 34.5838 36.2153 34.5838 33.5746C34.5838 31.1506 33.2633 29.4867 31.0562 29.4867H31.0576ZM30.0268 37.6981C29.3581 37.6981 28.7794 37.2648 28.7794 36.0696V31.8921C28.7794 30.7158 29.3395 30.2637 30.0268 30.2637C31.1847 30.2637 31.7095 31.6738 31.7095 33.8454C31.7095 36.0171 31.1847 37.6981 30.0268 37.6981Z" fill="#1D1D1B"/>
<path d="M45.671 19.0432V19.3512H45.9604C46.9187 19.3512 47.0812 20.1112 46.7376 20.961L45.3274 24.5427L43.1031 19.3884H44.1883V19.0447H39.0879V19.3884H40.1544L43.2394 25.9421L43.3415 26.1586L43.6125 26.7438L43.6202 26.7592L43.7299 26.9992L44.1001 27.79C43.7996 28.6445 43.3757 29.1058 42.7347 29.225C42.1295 29.338 41.8139 29.1212 41.7395 28.8227C41.7658 28.7622 41.8478 28.7097 41.9903 28.6832C42.6124 28.5672 43.0335 28.0658 42.9082 27.3892C42.7858 26.7314 42.2935 26.363 41.5119 26.5084C40.783 26.6447 40.3202 27.3196 40.4624 28.0841C40.6544 29.115 41.4655 29.8102 42.7811 29.5657C43.6432 29.4046 44.1665 28.7917 44.5257 27.6355L44.6989 27.1957L44.99 26.4636L47.1352 21.0523C47.5331 20.0215 48.0578 19.3528 48.8179 19.3528H49.0531V19.0447H45.671V19.0432Z" fill="#1D1D1B"/>
</g>
<defs>
<clipPath id="clip0_95_1226">
<rect width="55" height="55" fill="white"/>
</clipPath>
</defs>
</svg>
