<svg width="109" height="22" viewBox="0 0 109 22" fill="none" xmlns="http://www.w3.org/2000/svg">
<path d="M9.94894 2.92705C10.2483 2.00574 11.5517 2.00574 11.8511 2.92705L13.1227 6.84073C13.2566 7.25275 13.6405 7.53171 14.0737 7.53171H18.1888C19.1576 7.53171 19.5603 8.77133 18.7766 9.34073L15.4474 11.7595C15.097 12.0142 14.9503 12.4655 15.0842 12.8776L16.3558 16.7912C16.6552 17.7125 15.6007 18.4787 14.817 17.9093L11.4878 15.4905C11.1373 15.2358 10.6627 15.2358 10.3122 15.4905L6.98304 17.9093C6.19933 18.4787 5.14485 17.7125 5.4442 16.7912L6.71583 12.8776C6.8497 12.4655 6.70304 12.0142 6.35256 11.7595L3.02338 9.34073C2.23967 8.77133 2.64244 7.53171 3.61117 7.53171H7.72625C8.15948 7.53171 8.54344 7.25275 8.67731 6.84073L9.94894 2.92705Z" fill="#FFCC01"/>
<path d="M31.749 2.92705C32.0483 2.00574 33.3518 2.00574 33.6511 2.92705L34.9227 6.84073C35.0566 7.25275 35.4406 7.53171 35.8738 7.53171H39.9889C40.9576 7.53171 41.3604 8.77133 40.5767 9.34073L37.2475 11.7595C36.897 12.0142 36.7503 12.4655 36.8842 12.8776L38.1559 16.7912C38.4552 17.7125 37.4007 18.4787 36.617 17.9093L33.2878 15.4905C32.9373 15.2358 32.4628 15.2358 32.1123 15.4905L28.7831 17.9093C27.9994 18.4787 26.9449 17.7125 27.2442 16.7912L28.5159 12.8776C28.6498 12.4655 28.5031 12.0142 28.1526 11.7595L24.8234 9.34073C24.0397 8.77133 24.4425 7.53171 25.4112 7.53171H29.5263C29.9595 7.53171 30.3435 7.25275 30.4774 6.84073L31.749 2.92705Z" fill="#FFCC01"/>
<path d="M53.549 2.92705C53.8484 2.00574 55.1518 2.00574 55.4512 2.92705L56.7228 6.84073C56.8567 7.25275 57.2406 7.53171 57.6738 7.53171H61.7889C62.7577 7.53171 63.1604 8.77133 62.3767 9.34073L59.0475 11.7595C58.6971 12.0142 58.5504 12.4655 58.6843 12.8776L59.9559 16.7912C60.2553 17.7125 59.2008 18.4787 58.4171 17.9093L55.0879 15.4905C54.7374 15.2358 54.2628 15.2358 53.9123 15.4905L50.5831 17.9093C49.7994 18.4787 48.7449 17.7125 49.0443 16.7912L50.3159 12.8776C50.4498 12.4655 50.3031 12.0142 49.9527 11.7595L46.6235 9.34073C45.8398 8.77133 46.2425 7.53171 47.2113 7.53171H51.3264C51.7596 7.53171 52.1435 7.25275 52.2774 6.84073L53.549 2.92705Z" fill="#FFCC01"/>
<path d="M75.3488 2.92705C75.6482 2.00574 76.9516 2.00574 77.251 2.92705L78.5226 6.84073C78.6565 7.25275 79.0404 7.53171 79.4736 7.53171H83.5887C84.5575 7.53171 84.9602 8.77133 84.1765 9.34073L80.8473 11.7595C80.4969 12.0142 80.3502 12.4655 80.4841 12.8776L81.7557 16.7912C82.0551 17.7125 81.0006 18.4787 80.2169 17.9093L76.8877 15.4905C76.5372 15.2358 76.0626 15.2358 75.7121 15.4905L72.3829 17.9093C71.5992 18.4787 70.5447 17.7125 70.8441 16.7912L72.1157 12.8776C72.2496 12.4655 72.1029 12.0142 71.7525 11.7595L68.4233 9.34073C67.6396 8.77133 68.0423 7.53171 69.0111 7.53171H73.1262C73.5594 7.53171 73.9433 7.25275 74.0772 6.84073L75.3488 2.92705Z" fill="#FFCC01"/>
<path d="M97.1489 2.92705C97.4482 2.00574 98.7517 2.00574 99.051 2.92705L100.323 6.84073C100.457 7.25275 100.84 7.53171 101.274 7.53171H105.389C106.358 7.53171 106.76 8.77133 105.977 9.34073L102.647 11.7595C102.297 12.0142 102.15 12.4655 102.284 12.8776L103.556 16.7912C103.855 17.7125 102.801 18.4787 102.017 17.9093L98.6877 15.4905C98.3372 15.2358 97.8627 15.2358 97.5122 15.4905L94.183 17.9093C93.3993 18.4787 92.3448 17.7125 92.6441 16.7912L93.9158 12.8776C94.0497 12.4655 93.903 12.0142 93.5525 11.7595L90.2233 9.34073C89.4396 8.77133 89.8424 7.53171 90.8111 7.53171H94.9262C95.3594 7.53171 95.7434 7.25275 95.8773 6.84073L97.1489 2.92705Z" fill="#FFCC01"/>
</svg>
